<svg width="450" height="617.5" xmlns="http://www.w3.org/2000/svg">
 <!-- Created with Method Draw - http://github.com/duopixel/Method-Draw/ -->

 <g stroke="null">
  <title>background</title>
  <rect stroke="null" fill="none" id="canvas_background" height="619.5" width="452" y="-1" x="-1"/>
  <g stroke="null" display="none" id="canvasGrid">
   <rect stroke="null" fill="url(#gridpattern)" stroke-width="0" y="0" x="0" height="100%" width="100%" id="svg_1"/>
  </g>
 </g>
 <g stroke="null">
  <title>Layer 1</title>
  <rect fill="#72cec1" stroke-width="14" x="2.999995" y="1.187495" width="444.000003" height="614" id="svg_15" stroke="#72cec1"/>
  <path stroke="#ffd491" transform="rotate(46.007781982421875 42.062515258789134,622.9332885742188) " id="svg_40" d="m109.83527,597.77361l0,0c0,66.51209 -34.58841,120.4308 -77.25536,120.4308l0,0c-20.48938,0 -31.13954,119.41514 -45.62772,96.82998c-14.4882,-22.58516 -23.62759,-67.71634 -31.62763,-217.26078l-1.00001,0c-76.03589,35.19494 -233.51717,-284.80889 61.48488,-124.59063l15.55282,7.16821c419.09166,176.37655 78.47302,50.91033 78.47302,117.42242zm-33.57141,27.26615l-4.24876,-27.85601c4.0311,-4.00265 -40.35999,-30.67681 -60.51374,-29.06178c-20.15375,1.61503 -43.16997,21.27842 -43.16997,54.53446c0,33.25604 42.91505,35.33258 64.24852,35.33258l0,0c21.33347,0 43.68395,0.30678 43.68395,-32.94925z" stroke-width="14" fill="#ffd491"/>
  <g id="svg_14" stroke="null">
   <ellipse ry="3.129477" rx="2.864835" id="svg_5" cy="64.550531" cx="68.151318" fill-opacity="null" stroke-opacity="null" stroke-width="0" fill="#000000" stroke="#000"/>
   <ellipse ry="3.129477" rx="2.864835" id="svg_6" cy="64.550531" cx="83.868117" fill-opacity="null" stroke-opacity="null" stroke-width="0" fill="#000000" stroke="#000"/>
   <ellipse ry="3.129477" rx="2.864835" id="svg_7" cy="64.550531" cx="99.584917" fill-opacity="null" stroke-opacity="null" stroke-width="0" fill="#000000" stroke="#000"/>
   <ellipse ry="3.129477" rx="2.864835" id="svg_8" cy="64.550531" cx="115.301716" stroke-opacity="null" stroke-width="0" fill="#000000" stroke="#000"/>
   <ellipse ry="3.129477" rx="2.864835" id="svg_21" cy="91.266387" cx="68.008076" fill-opacity="null" stroke-opacity="null" stroke-width="0" fill="#000000" stroke="#000"/>
   <ellipse ry="3.129477" rx="2.864835" id="svg_22" cy="91.266387" cx="83.724876" fill-opacity="null" stroke-opacity="null" stroke-width="0" fill="#000000" stroke="#000"/>
   <ellipse ry="3.129477" rx="2.864835" id="svg_23" cy="91.420116" cx="99.441675" fill-opacity="null" stroke-opacity="null" stroke-width="0" fill="#000000" stroke="#000"/>
   <ellipse ry="3.129477" rx="2.864835" id="svg_24" cy="91.420116" cx="115.158474" fill-opacity="null" stroke-opacity="null" stroke-width="0" fill="#000000" stroke="#000"/>
   <ellipse ry="3.129477" rx="2.864835" id="svg_25" cy="117.84224" cx="67.864835" fill-opacity="null" stroke-opacity="null" stroke-width="0" fill="#000000" stroke="#000"/>
   <ellipse ry="3.129477" rx="2.864835" id="svg_26" cy="117.84224" cx="83.581634" fill-opacity="null" stroke-opacity="null" stroke-width="0" fill="#000000" stroke="#000"/>
   <ellipse ry="3.129477" rx="2.864835" id="svg_27" cy="117.84224" cx="99.298433" fill-opacity="null" stroke-opacity="null" stroke-width="0" fill="#000000" stroke="#000"/>
   <ellipse ry="3.129477" rx="2.864835" id="svg_28" cy="117.84224" cx="115.015232" fill-opacity="null" stroke-opacity="null" stroke-width="0" fill="#000000" stroke="#000"/>
   <ellipse ry="3.129477" rx="2.864835" id="svg_29" cy="144.53339" cx="68.008076" fill-opacity="null" stroke-opacity="null" stroke-width="0" fill="#000000" stroke="#000"/>
   <ellipse ry="3.129477" rx="2.864835" id="svg_30" cy="144.53339" cx="83.724876" fill-opacity="null" stroke-opacity="null" stroke-width="0" fill="#000000" stroke="#000"/>
   <ellipse ry="3.129477" rx="2.864835" id="svg_31" cy="144.53339" cx="99.441675" fill-opacity="null" stroke-opacity="null" stroke-width="0" fill="#000000" stroke="#000"/>
   <ellipse ry="3.129477" rx="2.864835" id="svg_32" cy="144.53339" cx="115.158474" fill-opacity="null" stroke-opacity="null" stroke-width="0" fill="#000000" stroke="#000"/>
   <ellipse ry="3.129477" rx="2.864835" id="svg_2" cy="170.758106" cx="67.864835" fill-opacity="null" stroke-opacity="null" stroke-width="0" fill="#000000" stroke="#000"/>
   <ellipse ry="3.129477" rx="2.864835" id="svg_3" cy="170.758106" cx="83.581634" fill-opacity="null" stroke-opacity="null" stroke-width="0" fill="#000000" stroke="#000"/>
   <ellipse ry="3.129477" rx="2.864835" id="svg_4" cy="170.758106" cx="99.298433" fill-opacity="null" stroke-opacity="null" stroke-width="0" fill="#000000" stroke="#000"/>
   <ellipse ry="3.129477" rx="2.864835" id="svg_9" cy="170.758106" cx="115.015232" fill-opacity="null" stroke-opacity="null" stroke-width="0" fill="#000000" stroke="#000"/>
   <ellipse ry="3.129477" rx="2.864835" id="svg_10" cy="197.449256" cx="68.008076" fill-opacity="null" stroke-opacity="null" stroke-width="0" fill="#000000" stroke="#000"/>
   <ellipse ry="3.129477" rx="2.864835" id="svg_11" cy="197.449256" cx="83.724876" fill-opacity="null" stroke-opacity="null" stroke-width="0" fill="#000000" stroke="#000"/>
   <ellipse ry="3.129477" rx="2.864835" id="svg_12" cy="197.449256" cx="99.441675" fill-opacity="null" stroke-opacity="null" stroke-width="0" fill="#000000" stroke="#000"/>
   <ellipse ry="3.129477" rx="2.864835" id="svg_13" cy="197.449256" cx="115.158474" fill-opacity="null" stroke-opacity="null" stroke-width="0" fill="#000000" stroke="#000"/>
  </g>
 </g>
</svg>