<svg width="1044" height="1042" xmlns="http://www.w3.org/2000/svg" preserveAspectRatio="xMidYMid meet">
 <metadata>Created by potrace 1.15, written by Peter Selinger 2001-2017</metadata>

 <g>
  <title>background</title>
  <rect fill="none" id="canvas_background" height="619.5" width="452" y="-1" x="-1"/>
 </g>
 <g>
  <title>Layer 1</title>
  <g id="svg_1" fill="#000000" transform="translate(0,1042) scale(0.10000000149011612,-0.10000000149011612) ">
   <path stroke="null" id="svg_2" d="m4811.666748,10185.999512c-624,-56 -1174,-203 -1730,-463c-991,-463 -1829,-1280 -2320,-2263c-388,-775 -569,-1621 -527,-2453c31,-594 136,-1084 349,-1627c62,-157 237,-515 324,-663c465,-787 1121,-1425 1914,-1859c611,-335 1299,-541 2003,-599c163,-13 723,-7 890,11c1010,105 1963,509 2717,1149c549,466 958,989 1265,1616c356,726 527,1506 507,2305c-14,542 -97,999 -272,1510c-496,1441 -1643,2586 -3086,3078c-384,131 -757,213 -1124,247c-235,22 -720,28 -910,11zm870,-72c905,-77 1823,-440 2560,-1012c770,-598 1338,-1399 1645,-2322c156,-467 227,-850 250,-1347c61,-1335 -441,-2657 -1372,-3618c-576,-595 -1293,-1037 -2083,-1283c-656,-205 -1432,-272 -2107,-181c-864,115 -1690,459 -2373,988c-429,332 -820,755 -1108,1198c-366,562 -617,1200 -732,1863c-56,323 -81,837 -56,1181c47,654 217,1264 521,1864c323,641 768,1183 1343,1639c534,423 1195,745 1871,911c538,132 1052,169 1641,119z"/>
   <path stroke="null" id="svg_3" d="m6466.666748,7936.999512l0,-34l-101,-17c-446,-74 -769,-415 -820,-866c-29,-262 68,-552 248,-742c54,-56 56,-59 38,-78c-11,-12 -15,-26 -10,-37c6,-16 9,-15 27,9l21,26l59,-43c127,-94 240,-144 396,-176c328,-66 648,36 891,284l65,66l28,-17c38,-22 60,-2 24,22c-15,9 -26,21 -26,26c0,5 16,34 35,64c68,106 135,309 135,408c0,57 10,78 36,78c15,0 24,6 24,15c0,9 -9,15 -25,15c-20,0 -25,6 -29,33c-2,17 -9,67 -15,110c-60,433 -439,779 -892,814l-79,6l0,33c0,24 -5,34 -15,34c-10,0 -15,-10 -15,-33zm0,-534l-1,-468l-299,-347l-298,-347l-55,59c-104,112 -188,274 -223,431c-25,110 -23,301 5,413c87,358 373,633 736,706c50,10 100,19 113,19l22,1l0,-467zm196,452c117,-20 171,-38 278,-93c289,-148 476,-424 505,-744l7,-78l-478,0l-478,0l0,465l0,465l39,0c21,0 78,-7 127,-15zm212,-1228c204,-148 372,-274 372,-279c0,-15 -100,-117 -163,-165c-280,-216 -674,-254 -992,-95c-85,42 -197,121 -192,135c8,24 583,683 592,679c6,-3 178,-127 383,-275zm569,201c-9,-127 -87,-345 -153,-426l-19,-23l-355,257c-195,141 -359,260 -364,265c-6,5 179,9 443,9l454,0l-6,-82z"/>
   <path stroke="null" id="svg_4" d="m1359.666748,4897.999512c25,-833 341,-1634 903,-2288c751,-875 1878,-1370 3044,-1337c243,7 353,18 560,53c673,114 1312,407 1835,840c769,638 1256,1560 1344,2539c6,61 13,172 16,248l7,137l-3858,0l-3857,0l6,-192z"/>
  </g>
  <ellipse stroke="#fdf3e5" ry="468.666836" rx="476.66679" id="svg_5" cy="533.583319" cx="524.000019" stroke-width="14" fill="#fdf3e5"/>
 </g>
</svg>