<?xml version="1.0" encoding="iso-8859-1"?>
<!-- Generator: Adobe Illustrator 18.0.0, SVG Export Plug-In . SVG Version: 6.00 Build 0)  -->
<!DOCTYPE svg PUBLIC "-//W3C//DTD SVG 1.1//EN" "http://www.w3.org/Graphics/SVG/1.1/DTD/svg11.dtd">
<svg version="1.1" id="Capa_1" xmlns="http://www.w3.org/2000/svg" xmlns:xlink="http://www.w3.org/1999/xlink" x="0px" y="0px"
	 viewBox="0 0 368.471 368.471" style="enable-background:new 0 0 368.471 368.471;" xml:space="preserve">
<g>
	<path d="M190.587,330.939c77.391,0,140.352-62.96,140.352-140.349c0-77.389-62.961-140.35-140.352-140.35
		c-77.388,0-140.348,62.961-140.348,140.35C50.239,267.978,113.199,330.939,190.587,330.939z M74.291,239.248
		c5.386,5.035,11.648,9.75,18.755,14.067c7.19,4.368,15.042,8.175,23.384,11.431c3.256,8.341,7.063,16.192,11.432,23.384
		c4.317,7.107,9.033,13.37,14.068,18.757C111.482,294.101,87.077,269.695,74.291,239.248z M100.56,177.092
		c1.015-0.195,2.062-0.381,3.101-0.568c-0.286,4.645-0.437,9.338-0.437,14.066c0,4.729,0.15,9.419,0.437,14.064
		c-1.039-0.188-2.085-0.373-3.099-0.568c-26.382-5.069-33.978-10.561-36.034-12.715c-0.002-0.261-0.01-0.52-0.01-0.781
		c0-0.262,0.008-0.521,0.01-0.782C66.584,187.652,74.179,182.162,100.56,177.092z M189.805,64.529c0.262-0.002,0.52-0.01,0.782-0.01
		s0.523,0.008,0.784,0.01c2.154,2.059,7.645,9.656,12.715,36.034c0.195,1.013,0.379,2.059,0.566,3.097
		c-4.645-0.286-9.336-0.437-14.065-0.437c-4.727,0-9.419,0.15-14.064,0.437c0.188-1.04,0.374-2.086,0.568-3.101
		C182.158,74.184,187.648,66.587,189.805,64.529z M190.587,116.122c5.446,0,10.828,0.226,16.143,0.624
		c1.718,12.373,2.982,26.043,3.75,40.474c-6.532-0.197-13.175-0.298-19.893-0.298s-13.36,0.101-19.89,0.298
		c0.768-14.432,2.031-28.102,3.75-40.474C179.76,116.348,185.143,116.122,190.587,116.122z M190.587,169.82
		c6.903,0,13.73,0.114,20.442,0.328c0.213,6.711,0.327,13.537,0.327,20.441c0,6.902-0.114,13.729-0.327,20.439
		c-6.713,0.213-13.539,0.327-20.442,0.327s-13.729-0.114-20.438-0.327c-0.215-6.711-0.328-13.536-0.328-20.439
		c0-6.904,0.113-13.73,0.328-20.441C176.859,169.935,183.684,169.82,190.587,169.82z M316.649,189.807
		c0.001,0.262,0.01,0.521,0.01,0.783c0,0.262-0.009,0.521-0.01,0.782c-2.059,2.155-9.657,7.645-36.037,12.714
		c-1.013,0.195-2.059,0.381-3.099,0.567c0.287-4.645,0.438-9.335,0.438-14.064c0-4.729-0.15-9.421-0.438-14.066
		c1.041,0.188,2.088,0.373,3.102,0.568C306.994,182.161,314.592,187.651,316.649,189.807z M265.053,190.59
		c0,5.445-0.225,10.826-0.624,16.14c-12.372,1.718-26.042,2.982-40.472,3.75c0.195-6.53,0.297-13.173,0.297-19.89
		c0-6.718-0.102-13.361-0.297-19.893c14.43,0.768,28.1,2.031,40.472,3.75C264.828,179.762,265.053,185.145,265.053,190.59z
		 M191.369,316.649c-0.261,0.001-0.52,0.01-0.782,0.01c-0.261,0-0.52-0.009-0.782-0.01c-2.156-2.059-7.646-9.655-12.714-36.033
		c-0.194-1.015-0.381-2.062-0.568-3.102c4.645,0.286,9.337,0.437,14.064,0.437c4.73,0,9.421-0.15,14.065-0.437
		c-0.186,1.038-0.371,2.084-0.566,3.098C199.016,306.992,193.525,314.591,191.369,316.649z M190.587,265.053
		c-5.444,0-10.827-0.225-16.141-0.624c-1.718-12.372-2.982-26.042-3.749-40.472c6.529,0.196,13.174,0.297,19.89,0.297
		c6.718,0,13.36-0.101,19.894-0.297c-0.769,14.43-2.033,28.099-3.751,40.472C201.416,264.827,196.033,265.053,190.587,265.053z
		 M157.219,210.48c-14.43-0.769-28.1-2.032-40.473-3.75c-0.398-5.314-0.624-10.695-0.624-16.141c0-5.445,0.226-10.828,0.624-16.143
		c12.373-1.719,26.043-2.982,40.473-3.75c-0.196,6.531-0.297,13.175-0.297,19.893C156.922,197.307,157.023,203.949,157.219,210.48z
		 M95.102,216.152c3.137,0.641,6.403,1.246,9.779,1.814c1.289,10.506,3.326,20.675,6.053,30.353
		c-3.887-1.869-7.637-3.868-11.192-6.027c-15.986-9.71-27.012-21.468-32.31-34.157C74.369,211.141,83.548,213.791,95.102,216.152z
		 M118.16,219.936c12.227,1.598,25.555,2.78,39.584,3.496c0.717,14.029,1.898,27.357,3.496,39.584
		c-12.246-1.717-23.94-4.508-34.781-8.298C122.668,243.877,119.877,232.182,118.16,219.936z M163.209,276.293
		c0.569,3.377,1.174,6.642,1.814,9.779c2.361,11.556,5.012,20.735,8.018,27.673c-12.689-5.298-24.445-16.324-34.156-32.311
		c-2.159-3.555-4.158-7.305-6.027-11.191C142.535,272.968,152.703,275.005,163.209,276.293z M208.132,313.746
		c3.007-6.938,5.657-16.117,8.019-27.674c0.641-3.137,1.246-6.402,1.814-9.779c10.508-1.288,20.676-3.326,30.354-6.051
		c-1.868,3.887-3.867,7.637-6.025,11.191C232.581,297.422,220.822,308.448,208.132,313.746z M219.934,263.016
		c1.6-12.227,2.781-25.555,3.498-39.584c14.029-0.716,27.357-1.898,39.584-3.496c-1.718,12.246-4.509,23.941-8.299,34.781
		C243.877,258.507,232.182,261.298,219.934,263.016z M276.293,217.967c3.377-0.568,6.642-1.174,9.779-1.814
		c11.556-2.361,20.735-5.012,27.674-8.018c-5.299,12.689-16.325,24.446-32.313,34.157c-3.555,2.159-7.305,4.157-11.191,6.026
		C272.967,238.642,275.005,228.473,276.293,217.967z M286.072,165.025c-3.137-0.641-6.402-1.246-9.779-1.815
		c-1.288-10.507-3.326-20.675-6.051-30.353c3.887,1.869,7.637,3.868,11.191,6.027c15.988,9.711,27.014,21.469,32.313,34.16
		C306.809,170.038,297.628,167.387,286.072,165.025z M263.016,161.242c-12.227-1.599-25.555-2.781-39.584-3.498
		c-0.717-14.029-1.898-27.357-3.498-39.584c12.248,1.717,23.943,4.508,34.783,8.299C258.507,137.3,261.298,148.994,263.016,161.242z
		 M217.965,104.882c-0.568-3.376-1.174-6.642-1.814-9.778c-2.361-11.555-5.012-20.734-8.019-27.672
		c12.691,5.298,24.45,16.324,34.161,32.311c2.158,3.555,4.157,7.305,6.025,11.191C238.641,108.207,228.473,106.17,217.965,104.882z
		 M173.041,67.434c-3.006,6.938-5.656,16.115-8.018,27.67c-0.641,3.137-1.245,6.402-1.814,9.778
		c-10.506,1.288-20.674,3.325-30.352,6.051c1.869-3.887,3.868-7.636,6.027-11.19C148.596,83.757,160.352,72.731,173.041,67.434z
		 M161.24,118.159c-1.598,12.228-2.779,25.555-3.496,39.585c-14.029,0.717-27.357,1.898-39.584,3.497
		c1.717-12.247,4.508-23.942,8.299-34.783C137.3,122.668,148.994,119.877,161.24,118.159z M104.881,163.21
		c-3.376,0.569-6.643,1.175-9.779,1.815c-11.555,2.361-20.732,5.012-27.67,8.018c5.299-12.689,16.324-24.447,32.311-34.158
		c3.555-2.16,7.305-4.158,11.191-6.027C108.207,142.535,106.17,152.703,104.881,163.21z M239.248,306.886
		c5.035-5.387,9.75-11.649,14.066-18.756c4.367-7.191,8.176-15.043,11.431-23.384c8.342-3.256,16.193-7.063,23.385-11.431
		c7.106-4.317,13.37-9.032,18.757-14.067C294.1,269.693,269.694,294.1,239.248,306.886z M306.885,141.928
		c-5.387-5.034-11.648-9.75-18.755-14.066c-7.191-4.368-15.043-8.176-23.385-11.432c-3.256-8.341-7.063-16.192-11.431-23.383
		c-4.316-7.105-9.031-13.367-14.064-18.753C269.694,87.08,294.098,111.484,306.885,141.928z M141.927,74.293
		c-5.034,5.386-9.749,11.648-14.066,18.754c-4.368,7.19-8.176,15.042-11.431,23.383c-8.342,3.256-16.194,7.063-23.385,11.432
		c-7.106,4.316-13.368,9.032-18.755,14.066C87.078,111.483,111.482,87.079,141.927,74.293z"/>
	<path d="M210.422,13.818C207.43,5.756,199.691,0,190.589,0c-11.698,0-21.178,9.479-21.178,21.178
		c0,11.694,9.479,21.175,21.178,21.175c8.241,0,15.365-4.719,18.864-11.593c79.885,9.369,142.076,77.468,142.076,159.829
		c0,88.743-72.197,160.94-160.94,160.94c-82.362,0-150.46-62.191-159.829-142.077c6.873-3.498,11.592-10.622,11.592-18.863
		c0-11.698-9.48-21.178-21.174-21.178C9.481,169.411,0,178.891,0,190.589c0,9.103,5.756,16.841,13.818,19.833
		c9.895,88.783,85.391,158.049,176.77,158.049c98.084,0,177.882-79.798,177.882-177.882
		C368.471,99.209,299.205,23.714,210.422,13.818z"/>
</g>
<g>
</g>
<g>
</g>
<g>
</g>
<g>
</g>
<g>
</g>
<g>
</g>
<g>
</g>
<g>
</g>
<g>
</g>
<g>
</g>
<g>
</g>
<g>
</g>
<g>
</g>
<g>
</g>
<g>
</g>
</svg>
