<?xml version="1.0" encoding="iso-8859-1"?>
<!-- Generator: Adobe Illustrator 18.0.0, SVG Export Plug-In . SVG Version: 6.00 Build 0)  -->
<!DOCTYPE svg PUBLIC "-//W3C//DTD SVG 1.1//EN" "http://www.w3.org/Graphics/SVG/1.1/DTD/svg11.dtd">
<svg version="1.1" id="Capa_1" xmlns="http://www.w3.org/2000/svg" xmlns:xlink="http://www.w3.org/1999/xlink" x="0px" y="0px"
	 viewBox="0 0 337.051 337.051" style="enable-background:new 0 0 337.051 337.051;" xml:space="preserve">
<g>
	<path d="M198.919,193.488c0-8.157-5.169-12.294-15.362-12.294h-7.054v24.973h7.054C193.75,206.168,198.919,201.902,198.919,193.488
		z"/>
	<path d="M246.657,193.773c0-8.157-5.168-12.294-15.361-12.294h-7.055v24.972h7.055
		C241.489,206.451,246.657,202.185,246.657,193.773z"/>
	<polygon points="130.091,188.301 120.965,208.236 139.331,208.236 	"/>
	<path d="M327.051,92.432h-6.877V75.556c0-11.028-8.972-20-20-20h-12.121V43.435c0-11.028-8.972-20-20-20H20
		c-11.028,0-20,8.972-20,20v201.184c0,11.028,8.972,20,20,20h12.121v12.121c0,11.028,8.971,20,20,20h16.877v6.876
		c0,5.523,4.477,10,10,10h248.053c5.523,0,10-4.477,10-10V102.432C337.051,96.909,332.574,92.432,327.051,92.432z M100.875,227.554
		l24.539-53.601c0.831-1.814,2.641-2.979,4.637-2.984c1.973,0.021,3.812,1.152,4.65,2.963l24.844,53.6
		c1.187,2.562,0.073,5.601-2.489,6.788c-2.558,1.189-5.6,0.074-6.788-2.488l-6.197-13.371h-27.786l-6.111,13.349
		c-0.859,1.877-2.714,2.986-4.651,2.986c-0.713,0-1.436-0.149-2.125-0.465C100.829,233.155,99.701,230.122,100.875,227.554z
		 M166.278,229.682v-53.6c0-2.823,2.289-5.112,5.112-5.112h12.166c15.782,0,25.587,8.628,25.587,22.518
		c0,14.128-9.805,22.904-25.587,22.904h-7.054v13.29c0,2.823-2.289,5.112-5.112,5.112
		C168.567,234.794,166.278,232.505,166.278,229.682z M214.017,229.966v-53.6c0-2.823,2.289-5.112,5.112-5.112h12.167
		c15.782,0,25.586,8.628,25.586,22.518c0,14.127-9.804,22.903-25.586,22.903h-7.055v13.291c0,2.823-2.289,5.112-5.112,5.112
		C216.306,235.079,214.017,232.79,214.017,229.966z M283.399,207.701c-8.457-2.562-20.04-6.07-20.04-19.734
		c0-10.167,8.927-16.998,22.213-16.998c5.992,0,12.52,1.812,17.035,4.729c2.371,1.532,3.051,4.697,1.52,7.068
		c-1.531,2.372-4.695,3.051-7.068,1.521c-2.863-1.85-7.479-3.093-11.486-3.093c-5.53,0-11.988,1.774-11.988,6.773
		c0,5.528,3.698,7.198,12.779,9.948c8.179,2.477,19.379,5.87,19.272,18.773c0,9.896-8.741,16.573-21.751,16.573
		c-7.881,0-15.915-3.315-20.967-8.653c-1.941-2.05-1.852-5.286,0.198-7.227c2.051-1.941,5.286-1.852,7.228,0.199
		c3.089,3.264,8.531,5.457,13.541,5.457c5.317,0,11.525-1.674,11.525-6.391C295.449,212.042,292.739,210.53,283.399,207.701z
		 M20,43.435h248.053v12.121H52.121c-11.029,0-20,8.972-20,20v169.063H20V43.435z M52.121,276.739v-12.121v-10V75.556h225.932h10
		h12.121v16.876H78.998c-5.523,0-10,4.477-10,10v174.307H52.121z"/>
</g>
<g>
</g>
<g>
</g>
<g>
</g>
<g>
</g>
<g>
</g>
<g>
</g>
<g>
</g>
<g>
</g>
<g>
</g>
<g>
</g>
<g>
</g>
<g>
</g>
<g>
</g>
<g>
</g>
<g>
</g>
</svg>
