<svg width="452" height="2245" xmlns="http://www.w3.org/2000/svg">
 <!-- Created with Method Draw - http://github.com/duopixel/Method-Draw/ -->

 <g>
  <title>background</title>
  <rect x="-1" y="-1" width="454" height="2247" id="canvas_background" fill="none"/>
  <g id="canvasGrid" display="none">
   <rect id="svg_1" width="450" height="2242.5" x="1" y="1" stroke-width="0" fill="url(#gridpattern)"/>
  </g>
 </g>
 <g>
  <title>Layer 1</title>
  <ellipse fill="#565a97" stroke-width="0" stroke-opacity="null" cx="61.916665" cy="1237.208602" id="svg_10" rx="20" ry="20" stroke="#000"/>
  <ellipse fill="#565a97" stroke-width="0" stroke-opacity="null" cx="171.638884" cy="1237.208602" id="svg_11" rx="20" ry="20" stroke="#000"/>
  <ellipse fill="#565a97" stroke-width="0" stroke-opacity="null" cx="281.361104" cy="1238.191058" id="svg_12" rx="20" ry="20" stroke="#000"/>
  <ellipse fill="#565a97" stroke-width="0" stroke-opacity="null" cx="391.083323" cy="1238.191058" id="svg_13" rx="20" ry="20" stroke="#000"/>
  <ellipse fill="#565a97" stroke-width="0" stroke-opacity="null" cx="60.916665" cy="1475.054462" id="svg_14" rx="20" ry="20" stroke="#000"/>
  <ellipse fill="#565a97" stroke-width="0" stroke-opacity="null" cx="170.638884" cy="1475.054462" id="svg_15" rx="20" ry="20" stroke="#000"/>
  <ellipse fill="#565a97" stroke-width="0" stroke-opacity="null" cx="280.361104" cy="1475.054462" id="svg_16" rx="20" ry="20" stroke="#000"/>
  <ellipse fill="#565a97" stroke-width="0" stroke-opacity="null" cx="390.083323" cy="1475.054462" id="svg_17" rx="20" ry="20" stroke="#000"/>
  <ellipse fill="#565a97" stroke-width="0" stroke-opacity="null" cx="61.916665" cy="1721.637558" id="svg_18" rx="20" ry="20" stroke="#000"/>
  <ellipse fill="#565a97" stroke-width="0" stroke-opacity="null" cx="171.638884" cy="1721.637558" id="svg_19" rx="20" ry="20" stroke="#000"/>
  <ellipse fill="#565a97" stroke-width="0" stroke-opacity="null" cx="281.361104" cy="1721.637558" id="svg_20" rx="20" ry="20" stroke="#000"/>
  <ellipse fill="#565a97" stroke-width="0" stroke-opacity="null" cx="391.083323" cy="1721.637558" id="svg_33" rx="20" ry="20" stroke="#000"/>
  <ellipse fill="#565a97" stroke-width="0" stroke-opacity="null" cx="62" cy="1957.078062" id="svg_34" rx="20" ry="20" stroke="#000"/>
  <ellipse fill="#565a97" stroke-width="0" stroke-opacity="null" cx="172" cy="1957.078062" id="svg_35" rx="20" ry="20" stroke="#000"/>
  <ellipse fill="#565a97" stroke-width="0" stroke-opacity="null" cx="281" cy="1957.078062" id="svg_36" rx="20" ry="20" stroke="#000"/>
  <ellipse fill="#565a97" stroke-width="0" stroke-opacity="null" cx="391" cy="1957.078062" id="svg_37" rx="20" ry="20" stroke="#000"/>
  <ellipse fill="#565a97" stroke-width="0" stroke-opacity="null" cx="57.99978" cy="2203.661171" id="svg_38" rx="20" ry="20" stroke="#000"/>
  <ellipse fill="#565a97" stroke-width="0" stroke-opacity="null" cx="167.638664" cy="2203.661171" id="svg_39" rx="20" ry="20" stroke="#000"/>
  <ellipse fill="#565a97" stroke-width="0" stroke-opacity="null" cx="277.360884" cy="2203.661171" id="svg_40" rx="20" ry="20" stroke="#000"/>
  <ellipse fill="#565a97" stroke-width="0" stroke-opacity="null" cx="387.083103" cy="2203.661171" id="svg_41" rx="20" ry="20" stroke="#000"/>
  <ellipse fill="#565a97" stroke-width="0" stroke-opacity="null" cx="61.916665" cy="33.14244" id="svg_42" rx="20" ry="20" stroke="#000"/>
  <ellipse fill="#565a97" stroke-width="0" stroke-opacity="null" cx="171.638884" cy="33.14244" id="svg_43" rx="20" ry="20" stroke="#000"/>
  <ellipse fill="#565a97" stroke-width="0" stroke-opacity="null" cx="281.361104" cy="34.124896" id="svg_44" rx="20" ry="20" stroke="#000"/>
  <ellipse fill="#565a97" stroke-width="0" stroke-opacity="null" cx="391.083323" cy="34.124896" id="svg_45" rx="20" ry="20" stroke="#000"/>
  <ellipse fill="#565a97" stroke-width="0" stroke-opacity="null" cx="60.916665" cy="270.9883" id="svg_46" rx="20" ry="20" stroke="#000"/>
  <ellipse fill="#565a97" stroke-width="0" stroke-opacity="null" cx="170.638884" cy="270.9883" id="svg_47" rx="20" ry="20" stroke="#000"/>
  <ellipse fill="#565a97" stroke-width="0" stroke-opacity="null" cx="280.361104" cy="270.9883" id="svg_48" rx="20" ry="20" stroke="#000"/>
  <ellipse fill="#565a97" stroke-width="0" stroke-opacity="null" cx="390.083323" cy="270.9883" id="svg_49" rx="20" ry="20" stroke="#000"/>
  <ellipse fill="#565a97" stroke-width="0" stroke-opacity="null" cx="61.916665" cy="517.571396" id="svg_50" rx="20" ry="20" stroke="#000"/>
  <ellipse fill="#565a97" stroke-width="0" stroke-opacity="null" cx="171.638884" cy="517.571396" id="svg_51" rx="20" ry="20" stroke="#000"/>
  <ellipse fill="#565a97" stroke-width="0" stroke-opacity="null" cx="281.361104" cy="517.571396" id="svg_52" rx="20" ry="20" stroke="#000"/>
  <ellipse fill="#565a97" stroke-width="0" stroke-opacity="null" cx="391.083323" cy="517.571396" id="svg_53" rx="20" ry="20" stroke="#000"/>
  <ellipse fill="#565a97" stroke-width="0" stroke-opacity="null" cx="62" cy="753.011899" id="svg_54" rx="20" ry="20" stroke="#000"/>
  <ellipse fill="#565a97" stroke-width="0" stroke-opacity="null" cx="172" cy="753.011899" id="svg_55" rx="20" ry="20" stroke="#000"/>
  <ellipse fill="#565a97" stroke-width="0" stroke-opacity="null" cx="281" cy="753.011899" id="svg_56" rx="20" ry="20" stroke="#000"/>
  <ellipse fill="#565a97" stroke-width="0" stroke-opacity="null" cx="391" cy="753.011899" id="svg_57" rx="20" ry="20" stroke="#000"/>
  <ellipse fill="#565a97" stroke-width="0" stroke-opacity="null" cx="57.99978" cy="999.595009" id="svg_58" rx="20" ry="20" stroke="#000"/>
  <ellipse fill="#565a97" stroke-width="0" stroke-opacity="null" cx="167.638664" cy="999.595009" id="svg_59" rx="20" ry="20" stroke="#000"/>
  <ellipse fill="#565a97" stroke-width="0" stroke-opacity="null" cx="277.360884" cy="999.595009" id="svg_60" rx="20" ry="20" stroke="#000"/>
  <ellipse fill="#565a97" stroke-width="0" stroke-opacity="null" cx="387.083103" cy="999.595009" id="svg_61" rx="20" ry="20" stroke="#000"/>
 </g>
</svg>