<svg width="450" height="1258.5" xmlns="http://www.w3.org/2000/svg">
 <!-- Created with Method Draw - http://github.com/duopixel/Method-Draw/ -->

 <g>
  <title>background</title>
  <rect x="-1" y="-1" width="452" height="1260.5" id="canvas_background" fill="none"/>
  <g id="canvasGrid" display="none">
   <rect id="svg_1" width="100%" height="100%" x="0" y="0" stroke-width="0" fill="url(#gridpattern)"/>
  </g>
 </g>
 <g>
  <title>Layer 1</title>
  <ellipse fill="#565a97" stroke-width="0" stroke-opacity="null" cx="61.916665" cy="39.421053" id="svg_5" rx="20" ry="20" stroke="#000"/>
  <ellipse fill="#565a97" stroke-width="0" stroke-opacity="null" cx="171.638884" cy="39.421053" id="svg_6" rx="20" ry="20" stroke="#000"/>
  <ellipse fill="#565a97" stroke-width="0" stroke-opacity="null" cx="281.361104" cy="39.421053" id="svg_7" rx="20" ry="20" stroke="#000"/>
  <ellipse fill="#565a97" stroke-width="0" stroke-opacity="null" cx="391.083323" cy="39.421053" id="svg_8" rx="20" ry="20" stroke="#000"/>
  <ellipse fill="#565a97" stroke-width="0" stroke-opacity="null" cx="60.916665" cy="210.157894" id="svg_21" rx="20" ry="20" stroke="#000"/>
  <ellipse fill="#565a97" stroke-width="0" stroke-opacity="null" cx="170.638884" cy="210.157894" id="svg_22" rx="20" ry="20" stroke="#000"/>
  <ellipse fill="#565a97" stroke-width="0" stroke-opacity="null" cx="280.361104" cy="211.14035" id="svg_23" rx="20" ry="20" stroke="#000"/>
  <ellipse fill="#565a97" stroke-width="0" stroke-opacity="null" cx="390.083323" cy="211.14035" id="svg_24" rx="20" ry="20" stroke="#000"/>
  <ellipse fill="#565a97" stroke-width="0" stroke-opacity="null" cx="59.916665" cy="380" id="svg_25" rx="20" ry="20" stroke="#000"/>
  <ellipse fill="#565a97" stroke-width="0" stroke-opacity="null" cx="169.638884" cy="380" id="svg_26" rx="20" ry="20" stroke="#000"/>
  <ellipse fill="#565a97" stroke-width="0" stroke-opacity="null" cx="279.361104" cy="380" id="svg_27" rx="20" ry="20" stroke="#000"/>
  <ellipse fill="#565a97" stroke-width="0" stroke-opacity="null" cx="389.083323" cy="380" id="svg_28" rx="20" ry="20" stroke="#000"/>
  <ellipse fill="#565a97" stroke-width="0" stroke-opacity="null" cx="60.916665" cy="550.578946" id="svg_29" rx="20" ry="20" stroke="#000"/>
  <ellipse fill="#565a97" stroke-width="0" stroke-opacity="null" cx="170.638884" cy="550.578946" id="svg_30" rx="20" ry="20" stroke="#000"/>
  <ellipse fill="#565a97" stroke-width="0" stroke-opacity="null" cx="280.361104" cy="550.578946" id="svg_31" rx="20" ry="20" stroke="#000"/>
  <ellipse fill="#565a97" stroke-width="0" stroke-opacity="null" cx="390.083323" cy="550.578946" id="svg_32" rx="20" ry="20" stroke="#000"/>
  <ellipse fill="#565a97" stroke-width="0" stroke-opacity="null" cx="61.916665" cy="721.452856" id="svg_2" rx="20" ry="20" stroke="#000"/>
  <ellipse fill="#565a97" stroke-width="0" stroke-opacity="null" cx="171.638884" cy="721.452856" id="svg_3" rx="20" ry="20" stroke="#000"/>
  <ellipse fill="#565a97" stroke-width="0" stroke-opacity="null" cx="281.361104" cy="721.452856" id="svg_4" rx="20" ry="20" stroke="#000"/>
  <ellipse fill="#565a97" stroke-width="0" stroke-opacity="null" cx="391.083323" cy="721.452856" id="svg_9" rx="20" ry="20" stroke="#000"/>
  <ellipse fill="#565a97" stroke-width="0" stroke-opacity="null" cx="60.916665" cy="892.189697" id="svg_10" rx="20" ry="20" stroke="#000"/>
  <ellipse fill="#565a97" stroke-width="0" stroke-opacity="null" cx="170.638884" cy="892.189697" id="svg_11" rx="20" ry="20" stroke="#000"/>
  <ellipse fill="#565a97" stroke-width="0" stroke-opacity="null" cx="280.361104" cy="893.172153" id="svg_12" rx="20" ry="20" stroke="#000"/>
  <ellipse fill="#565a97" stroke-width="0" stroke-opacity="null" cx="390.083323" cy="893.172153" id="svg_13" rx="20" ry="20" stroke="#000"/>
  <ellipse fill="#565a97" stroke-width="0" stroke-opacity="null" cx="59.916665" cy="1062.031803" id="svg_14" rx="20" ry="20" stroke="#000"/>
  <ellipse fill="#565a97" stroke-width="0" stroke-opacity="null" cx="169.638884" cy="1062.031803" id="svg_15" rx="20" ry="20" stroke="#000"/>
  <ellipse fill="#565a97" stroke-width="0" stroke-opacity="null" cx="279.361104" cy="1062.031803" id="svg_16" rx="20" ry="20" stroke="#000"/>
  <ellipse fill="#565a97" stroke-width="0" stroke-opacity="null" cx="389.083323" cy="1062.031803" id="svg_17" rx="20" ry="20" stroke="#000"/>
  <ellipse fill="#565a97" stroke-width="0" stroke-opacity="null" cx="60.916665" cy="1232.610749" id="svg_18" rx="20" ry="20" stroke="#000"/>
  <ellipse fill="#565a97" stroke-width="0" stroke-opacity="null" cx="170.638884" cy="1232.610749" id="svg_19" rx="20" ry="20" stroke="#000"/>
  <ellipse fill="#565a97" stroke-width="0" stroke-opacity="null" cx="280.361104" cy="1232.610749" id="svg_20" rx="20" ry="20" stroke="#000"/>
  <ellipse fill="#565a97" stroke-width="0" stroke-opacity="null" cx="390.083323" cy="1232.610749" id="svg_33" rx="20" ry="20" stroke="#000"/>
 </g>
</svg>