<svg width="450" height="617.5" xmlns="http://www.w3.org/2000/svg" style="vector-effect: non-scaling-stroke;" stroke="null">
 <!-- Created with Method Draw - http://github.com/duopixel/Method-Draw/ -->
 <g stroke="null">
  <title stroke="null">background</title>
  <rect stroke="null" fill="none" id="canvas_background" height="619.5" width="452" y="-1" x="-1"/>
  <g style="vector-effect: non-scaling-stroke;" stroke="null" display="none" overflow="visible" y="0" x="0" height="100%" width="100%" id="canvasGrid">
   <rect stroke="null" fill="url(#gridpattern)" stroke-width="0" y="0" x="0" height="100%" width="100%"/>
  </g>
 </g>
 <g stroke="null">
  <title stroke="null">Layer 1</title>
  <g stroke="null" style="vector-effect: non-scaling-stroke;" id="svg_35">
   <ellipse stroke="#000" style="vector-effect: non-scaling-stroke;" ry="3.489297" rx="3.726981" id="svg_5" cy="6.910349" cx="7.099679" fill-opacity="null" stroke-opacity="null" stroke-width="0" fill="#000000"/>
   <ellipse stroke="#000" style="vector-effect: non-scaling-stroke;" ry="3.489297" rx="3.726981" id="svg_6" cy="6.910349" cx="27.546309" fill-opacity="null" stroke-opacity="null" stroke-width="0" fill="#000000"/>
   <ellipse stroke="#000" style="vector-effect: non-scaling-stroke;" ry="3.489297" rx="3.726981" id="svg_7" cy="6.910349" cx="47.992939" fill-opacity="null" stroke-opacity="null" stroke-width="0" fill="#000000"/>
   <ellipse stroke="#000" style="vector-effect: non-scaling-stroke;" ry="3.489297" rx="3.726981" id="svg_8" cy="6.910349" cx="68.439569" stroke-opacity="null" stroke-width="0" fill="#000000"/>
   <ellipse stroke="#000" style="vector-effect: non-scaling-stroke;" ry="3.489297" rx="3.726981" id="svg_21" cy="36.697927" cx="6.91333" fill-opacity="null" stroke-opacity="null" stroke-width="0" fill="#000000"/>
   <ellipse stroke="#000" style="vector-effect: non-scaling-stroke;" ry="3.489297" rx="3.726981" id="svg_22" cy="36.697927" cx="27.35996" fill-opacity="null" stroke-opacity="null" stroke-width="0" fill="#000000"/>
   <ellipse stroke="#000" style="vector-effect: non-scaling-stroke;" ry="3.489297" rx="3.726981" id="svg_23" cy="36.869332" cx="47.80659" fill-opacity="null" stroke-opacity="null" stroke-width="0" fill="#000000"/>
   <ellipse stroke="#000" style="vector-effect: non-scaling-stroke;" ry="3.489297" rx="3.726981" id="svg_24" cy="36.869332" cx="68.25322" fill-opacity="null" stroke-opacity="null" stroke-width="0" fill="#000000"/>
   <ellipse stroke="#000" style="vector-effect: non-scaling-stroke;" ry="3.489297" rx="3.726981" id="svg_25" cy="66.329406" cx="6.726981" fill-opacity="null" stroke-opacity="null" stroke-width="0" fill="#000000"/>
   <ellipse stroke="#000" style="vector-effect: non-scaling-stroke;" ry="3.489297" rx="3.726981" id="svg_26" cy="66.329406" cx="27.173611" fill-opacity="null" stroke-opacity="null" stroke-width="0" fill="#000000"/>
   <ellipse stroke="#000" style="vector-effect: non-scaling-stroke;" ry="3.489297" rx="3.726981" id="svg_27" cy="66.329406" cx="47.620241" fill-opacity="null" stroke-opacity="null" stroke-width="0" fill="#000000"/>
   <ellipse stroke="#000" style="vector-effect: non-scaling-stroke;" ry="3.489297" rx="3.726981" id="svg_28" cy="66.329406" cx="68.066871" fill-opacity="null" stroke-opacity="null" stroke-width="0" fill="#000000"/>
   <ellipse stroke="#000" style="vector-effect: non-scaling-stroke;" ry="3.489297" rx="3.726981" id="svg_29" cy="96.089438" cx="6.91333" fill-opacity="null" stroke-opacity="null" stroke-width="0" fill="#000000"/>
   <ellipse stroke="#000" style="vector-effect: non-scaling-stroke;" ry="3.489297" rx="3.726981" id="svg_30" cy="96.089438" cx="27.35996" fill-opacity="null" stroke-opacity="null" stroke-width="0" fill="#000000"/>
   <ellipse stroke="#000" style="vector-effect: non-scaling-stroke;" ry="3.489297" rx="3.726981" id="svg_31" cy="96.089438" cx="47.80659" fill-opacity="null" stroke-opacity="null" stroke-width="0" fill="#000000"/>
   <ellipse stroke="#000" style="vector-effect: non-scaling-stroke;" ry="3.489297" rx="3.726981" id="svg_32" cy="96.089438" cx="68.25322" fill-opacity="null" stroke-opacity="null" stroke-width="0" fill="#000000"/>
  </g>
  <path stroke="#6ac2b6" style="vector-effect: non-scaling-stroke;" transform="rotate(46.007781982421875 44.062515258789155,620.9332885742188) " id="svg_40" d="m111.835268,595.773606l0,0c0,66.512092 -34.588405,120.430805 -77.255355,120.430805l0,0c-20.489386,0 -31.139545,119.415142 -45.627724,96.829984c-14.488195,-22.585165 -23.627585,-67.716347 -31.627632,-217.260789l-1.000006,0c-76.035889,35.194945 -233.517171,-284.808886 61.484879,-124.590629l15.55282,7.168212c419.091657,176.376555 78.473018,50.910335 78.473018,117.422417zm-33.571406,27.266153l-4.248758,-27.856011c4.031101,-4.002653 -40.35999,-30.67681 -60.513739,-29.061781c-20.15375,1.615028 -43.169971,21.278425 -43.169971,54.534461c0,33.256038 42.915048,35.332581 64.248519,35.332581l0,0c21.333465,0 43.683949,0.30678 43.683949,-32.94925z" stroke-width="14" fill="#6ac2b6"/>
  <path stroke="#fcd18f" transform="rotate(-37.053836822509766 285.8544006347655,403.1357727050781) " id="svg_42" d="m300.747282,732.337449c-43.842056,-16.540319 -293.164331,-39.396054 -186.288211,-188.11726c104.039433,-194.957468 168.880074,-439.505161 199.292777,-470.286021c2.708067,1.680407 26.806487,41.699235 53.552043,88.930748c42.843568,75.659901 125.624118,278.217385 125.624118,307.048361c0,58.439199 -21.47004,71.387765 -77.401889,70.424454c-16.321702,-0.281147 -136.489817,-45.682678 -141.456516,-157.689757l0,-0.00001zm150.401244,196.351536c1.451192,-7.5658 -103.073946,92.820858 -111.476112,92.820858c-19.1494,0 -62.502758,-339.008204 -68.437411,-362.002947c-6.330661,-24.529149 -98.082759,335.716926 -165.77654,300.704952c270.441187,-521.013709 231.16628,-215.312705 239.213595,-257.267166l0.798084,0.602569z" fill-opacity="null" stroke-opacity="null" stroke-width="14" fill="#fcd18f"/>
  <path stroke="#ff7f5c" style="vector-effect: non-scaling-stroke;" transform="rotate(-85.57218933105469 241.5105438232422,-13.544363975524911) " id="svg_43" d="m225.004807,68.107068c-19.551658,-8.866744 -32.970042,-14.357878 -29.785226,-38.395324c2.008248,-15.157434 43.781634,-129.856403 47.481788,-127.096434c1.207681,0.900812 11.954533,22.353648 23.881892,47.672977c19.106375,40.558894 21.686096,48.121873 21.686096,63.577253c0,31.327416 -20.773742,56.988124 -45.716923,56.471724c-7.278772,-0.150714 -15.175209,-1.154299 -17.547626,-2.230191l0,-0.000006zm19.588552,-15.756537c0.647168,-4.055788 -0.864583,-6.033778 -4.611586,-6.033778c-8.539802,0 -20.385895,-13.053723 -23.032493,-25.380482c-2.823201,-13.149305 -10.308764,-14.713149 -11.414422,-2.384633c-2.130202,23.752643 35.469742,56.289361 39.058496,33.798893l0.000005,0z" stroke-width="14" fill="#ff7f5c"/>
  <path stroke="#fefdfb" id="svg_45" d="m469.012552,234.317009c58.047192,-9.092777 -48.720627,-31.807323 -58.00354,-31.773324c-57.861404,16.714511 -52.800459,23.917485 -39.567578,13.092802c13.232881,-10.824683 -31.740834,17.604309 -22.740781,61.982878c-2.346884,19.82715 -29.693914,30.654249 -24.040751,40.48134l4.260954,15.384849c6.020341,23.284755 -15.239135,60.127075 13.91886,59.66328c29.157996,-0.463796 29.329884,3.058742 32.329902,74.773573s29.437655,-81.649716 -45.447193,43.598014c-15.918872,9.539089 -104.288297,60.906665 -111.47429,71.669797c-7.185992,10.784236 -6.370361,60.948874 -6.370361,60.948874l378.945085,0c0,0 0.829693,-50.164638 -6.356299,-60.948874c-7.200055,-10.784236 -95.569481,-62.130708 -111.488352,-71.669797c-15.918872,-9.560194 -22.275171,-35.834899 -22.275171,-35.834899s-7.17193,5.951379 -7.17193,-10.763132s7.17193,10.763132 14.34386,-53.773452c0,0 19.884527,-8.37836 15.918872,-77.663384c-4.781287,0 7.157867,-74.075674 -4.781287,-99.168545c0,99.168545 11.939154,25.092871 0,0c0,99.168545 11.939154,25.092871 0,0c0,99.168545 11.939154,25.092871 0,0c0,99.168545 11.939154,25.092871 0,0c0,99.168545 11.939154,25.092871 0,0l0,99.168545" stroke-width="14" fill="#fefdfb"/>
  <path stroke="#ff7f5c" transform="rotate(33.866844177246094 424.12866210937506,555.360107421875) " id="svg_44" d="m425.061491,694.72861c-30.98166,-15.563735 -173.96733,71.539374 -56.558722,-73.274544c117.408606,-144.813919 78.737504,-222.056523 84.600787,-217.211968c1.913697,1.58119 18.943214,39.237201 37.843371,83.68004c30.276063,71.19274 34.3639,84.467984 34.3639,111.596703c0,54.988793 -32.91818,100.030851 -72.443276,99.124416c-11.53398,-0.264546 -24.046714,-2.026131 -27.806059,-3.914636l0,-0.000009zm31.040122,-27.657341c1.025506,-7.119094 -15.016594,1.953021 -7.307544,-10.591047c-13.532216,0 12.084436,45.110474 -26.637211,2.446181c-38.721647,-42.664293 -26.195518,-72.822248 -27.947549,-51.18209c-3.375531,41.692845 56.205539,98.804315 61.892297,59.326956l0.000008,0z" stroke-width="14" fill="#ff7f5c"/>
  <path transform="rotate(22.47299575805664 437.739471435547,318.6518249511718) " stroke="#000000" id="svg_46" d="m446.70892,230.554654c19.388904,-66.787733 103.097412,43.821833 98.124074,81.242115c-4.973337,37.420281 -33.931794,150.203089 -36.277454,124.745608c-4.691321,-50.914963 -179.25061,-143.086224 -178.116771,-184.490803c1.13384,-41.404579 96.881246,-88.284653 116.270151,-21.49692z" stroke-width="14" fill="#000000"/>
  <path stroke="#ffffff" id="svg_49" d="m359.840501,308.22656c59.904454,-92.749735 23.135076,44.21247 15.000088,-3.893916c-8.134988,-48.106386 -74.904542,96.643651 -15.000088,3.893916z" stroke-width="14" fill="#ffffff"/>
  <path stroke="#ffffff" transform="rotate(61.77336502075195 303.9046020507813,539.3651123046875) " id="svg_50" d="m303.124099,635.86115c-6.953404,-10.477726 -24.716168,-46.593451 -20.218243,-71.55352c4.497924,-24.96007 25.195963,-127.267535 26.511895,-124.006112c0.429503,1.06448 4.251542,26.415039 8.49342,56.334587c6.795042,47.92796 7.712501,56.865043 7.712501,75.12848c0,37.019234 -15.024299,67.318183 -16.258889,66.731961c-1.23459,-0.586223 -5.396951,-1.364021 -6.240684,-2.635389l0,-0.000007zm6.966525,-18.619313c0.230161,-4.792675 -0.307483,-7.130043 -1.640077,-7.130043c-3.037118,0 -7.250094,-15.425428 -8.191337,-29.991812c-1.004051,-15.538376 -3.666236,-17.386353 -4.059455,-2.817892c-0.757591,28.068213 12.614553,66.516464 13.890867,39.939747l0.000002,0z" fill-opacity="null" stroke-opacity="null" stroke-width="14" fill="#ffffff"/>
  <path stroke="#fcd18f" id="svg_51" d="m293.919563,501.311534c-20.98601,-4.016181 -36.028086,-16.777515 -32.609626,-27.665244c2.155578,-6.865539 47.632841,-48.544152 51.604446,-47.294028c1.296278,0.408022 31.12601,-20.777825 44.63403,-19.406827c13.508019,1.370998 20.277015,66.797 10.276957,70.797477c0,14.189711 -40.297853,30.812724 -66.070914,29.578815c-61.813073,5.931769 -5.28843,-5.522867 -7.834893,-6.010191l0,-0.000002zm21.02561,-7.136903c0.694646,-1.837064 -0.928011,-2.732992 -4.949902,-2.732992c-9.1663,0 -21.881447,-5.912667 -24.722206,-11.496055c-3.030316,-5.955961 -11.065036,-6.664302 -12.251808,-1.080117c-2.286479,10.758728 74.072089,-9.504013 41.923911,15.309164l0.000005,0z" stroke-width="14" fill="#fcd18f"/>
  <path stroke="#000000" transform="rotate(107.16277313232422 478.51968383789057,344.90847778320307) " id="svg_52" d="m449.519438,416.376606c-14.865504,0.849155 -16.640321,-26.485497 -14.306927,-51.586778c1.471368,-15.828264 32.51353,-111.91686 35.224493,-109.034742c0.884823,0.940681 8.758637,23.342964 17.497365,49.782862c13.998523,42.353927 45.817682,39.086391 30.810903,63.875637c-15.006779,24.789246 -22.815683,73.889994 -40.07221,63.094896c-17.256526,-10.795098 31.457616,11.283612 -21.201663,-3.937387l0.147522,0.47766zm14.204274,-16.931549c0.474156,-4.235286 -0.633448,-6.300817 -3.378736,-6.300817c-6.256793,0 -14.935979,-13.631448 -16.875042,-26.503757c-2.068453,-13.73126 -7.552844,-15.364316 -8.362918,-2.490171c-1.560719,24.803874 34.388471,43.628525 28.616692,35.294745l0.000004,0z" stroke-width="14" fill="#000000"/>
 </g>
</svg>